<svg id="mitei-logo" xmlns="http://www.w3.org/2000/svg" xmlns:xlink="http://www.w3.org/1999/xlink" version="1.1" x="0" y="0" viewBox="0 0 258.2 140.7" xml:space="preserve"><title>MIT Energy Initiative</title><g class="mitei__mit"><path d="M43.8 127.3V91.4L32 114.8h-8.1L12 91.4v35.9H0V65.7h11.9L28 99l16-33.3h11.9v61.7H43.8zM69.5 127.3V65.7h12v61.7H69.5zM118.6 76.4v50.9h-12V76.4H90.5V65.7h44.3v10.7H118.6z"/></g><g class="mitei__ei"><path d="M198.4 128.6c-3.3 3.8-5.3 5.4-6.4 5.4 -0.9 0-2.1-0.4-2.1-1.7 0-1.1 1-5.3 4.6-18.9 2-6.9 3.6-13.8 3.6-16.1 0-3.6-2.1-4.9-5.9-4.9 -4.6 0-8.9 3.4-13.3 9.2l0 0c-4.2 4.9-7 12.2-13.5 17l0 0c-3.1 1.9-7.3 3.1-9.5 3.1 -4.9 0-9.6-4-10-13.7 21-5.8 29.5-10.9 29.5-19.7 0-5.4-4.2-9.3-12.9-9.3 -13.3 0-25.8 11.9-25.8 30.7 0 13.3 6.2 18.2 15.9 18.2 6.2 0 11.8-2.2 17.7-7 0.1 0 0.1-0.1 0.1-0.1l0 0c5.3-5 8.5-13.8 12-18 2-2.5 3.9-3.6 4.7-3.6 1 0 2.2 0.5 2.2 1.7 0 1.1-1.4 6.7-4.6 19 -1.9 6.9-3.7 14.1-3.7 16.2 0 3.5 2.2 4.7 5.9 4.7 4.4 0 9.1-4.1 13.6-9.6C201.3 130.2 199 127.9 198.4 128.6zM159.3 84c3.8 0 6.4 2.7 6.4 6.6 0 5.6-4.5 8.7-19.8 13.6C146.6 91.4 153.1 84 159.3 84z"/></g><g class="mitei__tittle"><path d="M201.2 82.8c-3.8 1-8-1.2-9-5.1 -1.1-3.9 1.1-8.3 5.1-9.4 4-1.1 8.2 1.2 9.3 5.3C207.6 77.7 205.2 81.7 201.2 82.8z"/></g><g class="mitei__short-bursts"><path d="M217.9 110.1l-10.6-18.3 1.6-0.9 10.6 18.3L217.9 110.1 217.9 110.1zM237.6 86.2L216 80.4l0.5-1.8 21.6 5.8L237.6 86.2 237.6 86.2zM182.5 71l-21.9-5.9 0.5-1.8 21.9 5.9L182.5 71 182.5 71zM214.7 66.7l-0.9-1.6 19.8-11.4 0.9 1.6L214.7 66.7 214.7 66.7zM189.7 61.1l-11.9-20.6 1.6-0.9 11.9 20.6L189.7 61.1 189.7 61.1zM203.8 58.5l-1.8-0.5 6.1-22.8 1.8 0.5L203.8 58.5 203.8 58.5z"/></g><g class="mitei__long-bursts"><polygon points="184.7 65.7 157.8 44.2 159 42.7 185.9 64.2 184.7 65.7 "/><polygon points="217.2 73.8 216.9 71.9 254.3 65.3 254.6 67.2 217.2 73.8 "/><polygon points="238 106 212.6 87.6 213.7 86.1 239.1 104.5 238 106 "/><polygon points="195.9 58.5 186.8 5.5 188.6 5.1 197.7 58.2 195.9 58.5 "/><polygon points="209.8 61.5 208.3 60.4 235.5 26.4 236.9 27.6 209.8 61.5 "/></g></svg>